<svg height="512pt" viewBox="-16 0 512 512" width="512pt" xmlns="http://www.w3.org/2000/svg"><path d="m360 407c0 8.285156-6.714844 15-15 15s-15-6.714844-15-15 6.714844-15 15-15 15 6.714844 15 15zm0 0"/><path d="m285 182h17.574219c23.351562 0 45.308593 9.09375 61.820312 25.605469 2.878907 2.882812 6.734375 4.394531 10.609375 4.394531 3.988282 0 7.847656-1.636719 10.601563-4.394531 9.820312-9.820313 21.574219-16.992188 34.394531-21.210938v40.605469c0 8.285156 6.714844 15 15 15s15-6.714844 15-15v-45h15c8.285156 0 15-6.714844 15-15v-152c0-8.285156-6.714844-15-15-15h-17.574219c-26.597656 0-51.839843 8.785156-72.425781 24.980469-20.585938-16.195313-45.828125-24.980469-72.425781-24.980469h-17.574219c-8.285156 0-15 6.714844-15 15v152c0 8.285156 6.714844 15 15 15zm165-152v122h-2.574219c-20.847656 0-40.480469 5.414062-57.425781 14.945312v-115.414062c15.921875-13.914062 36.082031-21.53125 57.425781-21.53125zm-150 0h2.574219c21.335937 0 41.507812 7.59375 57.425781 21.5v115.441406c-17.34375-9.753906-36.984375-14.941406-57.425781-14.941406h-2.574219zm0 0"/><path d="m15 512h450c8.285156 0 15-6.714844 15-15v-150c0-8.285156-6.714844-15-15-15h-136.507812c-6.96875-34.191406-37.273438-60-73.492188-60h-45v-15.308594c18.695312-14.085937 30-36.238281 30-59.691406v-26.789062c0-38.210938-26.875-71.398438-62.515625-77.195313-46.058594-7.492187-87.484375 27.671875-87.484375 73.984375v30c0 23.453125 11.304688 45.605469 30 59.691406v15.308594h-45c-41.355469 0-75 33.644531-75 75v150c0 8.285156 6.714844 15 15 15zm435-30h-210v-120h210zm-330-315c0-26.871094 23.855469-49.058594 52.667969-44.371094 21.28125 3.460938 37.332031 23.917969 37.332031 47.582032v26.789062c0 16.023438-8.429688 30.496094-22.546875 38.714844-4.613281 2.683594-7.453125 7.621094-7.453125 12.964844v32.105468l-15 15-15-15v-32.105468c0-5.339844-2.839844-10.28125-7.453125-12.964844-14.117187-8.21875-22.546875-22.691406-22.546875-38.714844zm-90 180c0-24.8125 20.1875-45 45-45h53.785156l25.609375 25.605469c2.925781 2.929687 6.765625 4.394531 10.605469 4.394531s7.679688-1.464844 10.605469-4.394531l25.609375-25.605469h53.785156c19.554688 0 36.226562 12.539062 42.421875 30h-72.421875c-8.285156 0-15 6.714844-15 15v90.039062c-12.542969-9.4375-28.128906-15.039062-45-15.039062h-75v-75c0-8.285156-6.714844-15-15-15s-15 6.714844-15 15v90c0 8.285156 6.714844 15 15 15h90c19.558594 0 36.238281 12.539062 42.429688 30h-177.429688zm0 0"/></svg>