<svg height="512pt" viewBox="0 0 512 512" width="512pt" xmlns="http://www.w3.org/2000/svg"><path d="m350.742188 149.230469c6.125-2.042969 10.257812-7.773438 10.257812-14.230469v-105h61v105c0 8.285156 6.714844 15 15 15s15-6.714844 15-15v-120c0-8.285156-6.714844-15-15-15h-361c-8.285156 0-15 6.714844-15 15s6.714844 15 15 15h75v105c0 6.457031 4.132812 12.1875 10.257812 14.230469l90 30c1.539063.511719 3.140626.769531 4.742188.769531s3.203125-.257812 4.742188-.769531zm-169.742188-25.042969v-94.1875h150v94.1875l-75 25zm0 0"/><path d="m75 512h362c41.355469 0 75-33.644531 75-75 0-8.285156-6.714844-15-15-15h-15v-227c0-8.285156-6.714844-15-15-15h-422c-8.285156 0-15 6.714844-15 15v227h-15c-8.285156 0-15 6.714844-15 15 0 41.355469 33.644531 75 75 75zm362-30h-362c-19.554688 0-36.238281-12.550781-42.429688-30.011719h446.859376c-6.191407 17.460938-22.875 30.011719-42.429688 30.011719zm-377-272h392v212h-392zm0 0"/></svg>